<svg xmlns="http://www.w3.org/2000/svg" viewBox="0 0 800 450">
  <defs>
    <linearGradient id="bg" x1="0%" y1="0%" x2="100%" y2="100%">
      <stop offset="0%" style="stop-color:#0f172a"/>
      <stop offset="100%" style="stop-color:#1e293b"/>
    </linearGradient>
  </defs>
  <!-- Background -->
  <rect width="800" height="450" fill="url(#bg)"/>
  <!-- Glow -->
  <circle cx="200" cy="120" r="180" fill="#f59e0b" opacity="0.06"/>
  <circle cx="600" cy="330" r="150" fill="#3b82f6" opacity="0.06"/>
  <!-- Left side: Table/Fields input -->
  <rect x="40" y="70" width="220" height="260" rx="12" fill="#1e293b" stroke="#334155" stroke-width="1.5"/>
  <rect x="40" y="70" width="220" height="35" rx="12" fill="#334155"/>
  <rect x="40" y="93" width="220" height="12" fill="#334155"/>
  <text x="150" y="93" text-anchor="middle" fill="#94a3b8" font-family="sans-serif" font-size="11" font-weight="bold">📊 Table Details</text>
  <!-- Table rows -->
  <rect x="55" y="118" width="190" height="22" rx="4" fill="#0f172a"/>
  <text x="65" y="133" fill="#fbbf24" font-family="monospace" font-size="10">FieldName</text>
  <text x="155" y="133" fill="#64748b" font-family="monospace" font-size="10">DataType</text>
  <rect x="55" y="146" width="190" height="22" rx="4" fill="#0f172a" opacity="0.7"/>
  <text x="65" y="161" fill="#94a3b8" font-family="monospace" font-size="10">StudentId</text>
  <text x="155" y="161" fill="#64748b" font-family="monospace" font-size="10">int</text>
  <rect x="55" y="174" width="190" height="22" rx="4" fill="#0f172a" opacity="0.7"/>
  <text x="65" y="189" fill="#94a3b8" font-family="monospace" font-size="10">FirstName</text>
  <text x="155" y="189" fill="#64748b" font-family="monospace" font-size="10">string</text>
  <rect x="55" y="202" width="190" height="22" rx="4" fill="#0f172a" opacity="0.7"/>
  <text x="65" y="217" fill="#94a3b8" font-family="monospace" font-size="10">LastName</text>
  <text x="155" y="217" fill="#64748b" font-family="monospace" font-size="10">string</text>
  <rect x="55" y="230" width="190" height="22" rx="4" fill="#0f172a" opacity="0.7"/>
  <text x="65" y="245" fill="#94a3b8" font-family="monospace" font-size="10">EnrollDate</text>
  <text x="155" y="245" fill="#64748b" font-family="monospace" font-size="10">DateTime</text>
  <!-- Time comparison badge -->
  <rect x="55" y="268" width="190" height="42" rx="6" fill="#22c55e" opacity="0.1" stroke="#22c55e" stroke-width="1"/>
  <text x="150" y="286" text-anchor="middle" fill="#ef4444" font-family="sans-serif" font-size="10">❌ Manual: 10-15 min</text>
  <text x="150" y="302" text-anchor="middle" fill="#22c55e" font-family="sans-serif" font-size="10" font-weight="bold">✅ Windsurf: 3-5 min</text>
  <!-- Arrow from left to center -->
  <line x1="270" y1="200" x2="310" y2="200" stroke="#f59e0b" stroke-width="2.5" opacity="0.5"/>
  <polygon points="305,195 315,200 305,205" fill="#f59e0b" opacity="0.6"/>
  <!-- Center: Windsurf AI workflow -->
  <rect x="320" y="100" width="160" height="200" rx="12" fill="#f59e0b" opacity="0.08" stroke="#f59e0b" stroke-width="1.5" stroke-dasharray="4,4"/>
  <text x="400" y="90" text-anchor="middle" fill="#fbbf24" font-family="sans-serif" font-size="12" font-weight="bold">🤖 Windsurf AI</text>
  <!-- Steps inside -->
  <rect x="338" y="115" width="124" height="30" rx="6" fill="#1e293b" stroke="#f59e0b" stroke-width="1" opacity="0.8"/>
  <text x="400" y="134" text-anchor="middle" fill="#fbbf24" font-family="sans-serif" font-size="10">1. Read Template</text>
  <line x1="400" y1="145" x2="400" y2="158" stroke="#f59e0b" stroke-width="1.5" opacity="0.4"/>
  <rect x="338" y="158" width="124" height="30" rx="6" fill="#1e293b" stroke="#f59e0b" stroke-width="1" opacity="0.8"/>
  <text x="400" y="177" text-anchor="middle" fill="#fbbf24" font-family="sans-serif" font-size="10">2. Generate Draft</text>
  <line x1="400" y1="188" x2="400" y2="201" stroke="#f59e0b" stroke-width="1.5" opacity="0.4"/>
  <rect x="338" y="201" width="124" height="30" rx="6" fill="#1e293b" stroke="#f59e0b" stroke-width="1" opacity="0.8"/>
  <text x="400" y="220" text-anchor="middle" fill="#fbbf24" font-family="sans-serif" font-size="10">3. Confirm</text>
  <line x1="400" y1="231" x2="400" y2="244" stroke="#f59e0b" stroke-width="1.5" opacity="0.4"/>
  <rect x="338" y="244" width="124" height="30" rx="6" fill="#1e293b" stroke="#22c55e" stroke-width="1.5"/>
  <text x="400" y="263" text-anchor="middle" fill="#86efac" font-family="sans-serif" font-size="10">4. Create in ADO</text>
  <!-- Arrow from center to right -->
  <line x1="490" y1="200" x2="530" y2="200" stroke="#3b82f6" stroke-width="2.5" opacity="0.5"/>
  <polygon points="525,195 535,200 525,205" fill="#3b82f6" opacity="0.6"/>
  <!-- Right side: Azure DevOps Backlog -->
  <rect x="540" y="70" width="220" height="260" rx="12" fill="#1e293b" stroke="#334155" stroke-width="1.5"/>
  <rect x="540" y="70" width="220" height="35" rx="12" fill="#3b82f6" opacity="0.2"/>
  <rect x="540" y="93" width="220" height="12" fill="#3b82f6" opacity="0.2"/>
  <text x="650" y="93" text-anchor="middle" fill="#93c5fd" font-family="sans-serif" font-size="11" font-weight="bold">📋 Azure DevOps Backlog</text>
  <!-- User story cards -->
  <rect x="555" y="115" width="190" height="42" rx="6" fill="#3b82f6" opacity="0.1" stroke="#3b82f6" stroke-width="1"/>
  <text x="565" y="132" fill="#93c5fd" font-family="sans-serif" font-size="10" font-weight="bold">📌 Parent: Hash Register API</text>
  <text x="565" y="148" fill="#64748b" font-family="sans-serif" font-size="9">Epic: International Backlog</text>
  <rect x="570" y="165" width="175" height="35" rx="5" fill="#0f172a" stroke="#334155" stroke-width="1"/>
  <text x="580" y="180" fill="#c4b5fd" font-family="sans-serif" font-size="9">├ MS GET User Story</text>
  <text x="580" y="193" fill="#64748b" font-family="sans-serif" font-size="8">  Description • AC • Tech Req</text>
  <rect x="570" y="206" width="175" height="35" rx="5" fill="#0f172a" stroke="#334155" stroke-width="1"/>
  <text x="580" y="221" fill="#c4b5fd" font-family="sans-serif" font-size="9">├ Gateway GET User Story</text>
  <text x="580" y="234" fill="#64748b" font-family="sans-serif" font-size="8">  Description • AC • Tech Req</text>
  <rect x="570" y="247" width="175" height="35" rx="5" fill="#0f172a" stroke="#334155" stroke-width="1"/>
  <text x="580" y="262" fill="#c4b5fd" font-family="sans-serif" font-size="9">├ MS PUT User Story</text>
  <text x="580" y="275" fill="#64748b" font-family="sans-serif" font-size="8">  Description • AC • Tech Req</text>
  <rect x="570" y="288" width="175" height="28" rx="5" fill="#22c55e" opacity="0.1" stroke="#22c55e" stroke-width="1"/>
  <text x="657" y="306" text-anchor="middle" fill="#86efac" font-family="sans-serif" font-size="9" font-weight="bold">✅ Auto-created via MCP</text>
  <!-- Title -->
  <text x="400" y="380" text-anchor="middle" fill="white" font-family="sans-serif" font-size="22" font-weight="bold">Creating API User Stories</text>
  <text x="400" y="402" text-anchor="middle" fill="#64748b" font-family="sans-serif" font-size="13">Windsurf Workflow • Template-Based Generation</text>
  <!-- Tag -->
  <rect x="40" y="345" width="130" height="28" rx="14" fill="#f59e0b" opacity="0.2"/>
  <text x="105" y="364" text-anchor="middle" fill="#fbbf24" font-family="sans-serif" font-size="12" font-weight="bold">📋 Windsurf</text>
</svg>
