<svg xmlns="http://www.w3.org/2000/svg" viewBox="0 0 800 400">
  <defs>
    <linearGradient id="bg" x1="0%" y1="0%" x2="100%" y2="100%">
      <stop offset="0%" style="stop-color:#8b5cf6"/>
      <stop offset="100%" style="stop-color:#6d28d9"/>
    </linearGradient>
  </defs>
  <rect width="800" height="400" fill="url(#bg)"/>
  <!-- Subtle pattern -->
  <circle cx="680" cy="100" r="160" fill="white" opacity="0.04"/>
  <circle cx="120" cy="300" r="130" fill="white" opacity="0.03"/>
  <!-- Two IDE panels side by side -->
  <!-- IDE 1 -->
  <rect x="60" y="45" width="320" height="170" rx="12" fill="white" opacity="0.1" stroke="white" stroke-width="1" stroke-opacity="0.2"/>
  <rect x="60" y="45" width="320" height="25" rx="12" fill="white" opacity="0.08"/>
  <rect x="60" y="60" width="320" height="10" fill="white" opacity="0.08"/>
  <circle cx="78" cy="58" r="4" fill="#ef4444" opacity="0.6"/>
  <circle cx="90" cy="58" r="4" fill="#eab308" opacity="0.6"/>
  <circle cx="102" cy="58" r="4" fill="#22c55e" opacity="0.6"/>
  <text x="220" y="61" text-anchor="middle" fill="white" opacity="0.5" font-family="sans-serif" font-size="8">Developer A — Windsurf IDE</text>
  <!-- Code lines -->
  <rect x="75" y="80" width="180" height="8" rx="2" fill="white" opacity="0.12"/>
  <rect x="75" y="94" width="140" height="8" rx="2" fill="white" opacity="0.08"/>
  <rect x="75" y="108" width="200" height="8" rx="2" fill="white" opacity="0.1"/>
  <rect x="75" y="122" width="160" height="8" rx="2" fill="white" opacity="0.06"/>
  <rect x="75" y="136" width="190" height="8" rx="2" fill="white" opacity="0.09"/>
  <!-- AI suggestion highlight -->
  <rect x="75" y="152" width="280" height="22" rx="4" fill="#22c55e" opacity="0.15" stroke="#22c55e" stroke-width="1" stroke-opacity="0.3"/>
  <text x="85" y="167" fill="white" opacity="0.7" font-family="sans-serif" font-size="8">✨ AI Suggestion: Generate service architecture doc</text>
  <!-- Cascade chat -->
  <rect x="75" y="180" width="140" height="18" rx="4" fill="white" opacity="0.06"/>
  <text x="85" y="193" fill="white" opacity="0.5" font-family="monospace" font-size="7">🤖 Cascade is typing...</text>
  <!-- IDE 2 -->
  <rect x="420" y="45" width="320" height="170" rx="12" fill="white" opacity="0.1" stroke="white" stroke-width="1" stroke-opacity="0.2"/>
  <rect x="420" y="45" width="320" height="25" rx="12" fill="white" opacity="0.08"/>
  <rect x="420" y="60" width="320" height="10" fill="white" opacity="0.08"/>
  <circle cx="438" cy="58" r="4" fill="#ef4444" opacity="0.6"/>
  <circle cx="450" cy="58" r="4" fill="#eab308" opacity="0.6"/>
  <circle cx="462" cy="58" r="4" fill="#22c55e" opacity="0.6"/>
  <text x="580" y="61" text-anchor="middle" fill="white" opacity="0.5" font-family="sans-serif" font-size="8">Developer B — Visual Studio</text>
  <!-- Code lines -->
  <rect x="435" y="80" width="170" height="8" rx="2" fill="white" opacity="0.1"/>
  <rect x="435" y="94" width="220" height="8" rx="2" fill="white" opacity="0.07"/>
  <rect x="435" y="108" width="150" height="8" rx="2" fill="white" opacity="0.11"/>
  <rect x="435" y="122" width="200" height="8" rx="2" fill="white" opacity="0.06"/>
  <rect x="435" y="136" width="180" height="8" rx="2" fill="white" opacity="0.09"/>
  <!-- Build output -->
  <rect x="435" y="152" width="280" height="22" rx="4" fill="white" opacity="0.06"/>
  <text x="445" y="167" fill="white" opacity="0.5" font-family="monospace" font-size="8">Build succeeded. 0 errors, 0 warnings</text>
  <rect x="435" y="180" width="140" height="18" rx="4" fill="white" opacity="0.06"/>
  <text x="445" y="193" fill="white" opacity="0.5" font-family="monospace" font-size="7">▶ Debug • Publish • Test</text>
  <!-- Connection line between IDEs -->
  <line x1="380" y1="130" x2="420" y2="130" stroke="white" stroke-width="2" stroke-dasharray="6,4" opacity="0.3"/>
  <!-- Participants -->
  <rect x="120" y="230" width="180" height="40" rx="8" fill="white" opacity="0.1" stroke="white" stroke-width="1" stroke-opacity="0.15"/>
  <circle cx="145" cy="250" r="12" fill="white" opacity="0.15"/>
  <text x="145" y="254" text-anchor="middle" fill="white" opacity="0.6" font-family="sans-serif" font-size="10">👨‍💻</text>
  <text x="165" y="246" fill="white" opacity="0.8" font-family="sans-serif" font-size="9" font-weight="bold">Mark Echon</text>
  <text x="165" y="260" fill="white" opacity="0.5" font-family="sans-serif" font-size="8">Dual IDE • MCP Workflows</text>
  <rect x="320" y="230" width="180" height="40" rx="8" fill="white" opacity="0.1" stroke="white" stroke-width="1" stroke-opacity="0.15"/>
  <circle cx="345" cy="250" r="12" fill="white" opacity="0.15"/>
  <text x="345" y="254" text-anchor="middle" fill="white" opacity="0.6" font-family="sans-serif" font-size="10">🤝</text>
  <text x="365" y="246" fill="white" opacity="0.8" font-family="sans-serif" font-size="9" font-weight="bold">Armando Lopez Jr.</text>
  <text x="365" y="260" fill="white" opacity="0.5" font-family="sans-serif" font-size="8">Bug Investigation • AI Models</text>
  <rect x="520" y="230" width="180" height="40" rx="8" fill="white" opacity="0.1" stroke="white" stroke-width="1" stroke-opacity="0.15"/>
  <circle cx="545" cy="250" r="12" fill="white" opacity="0.15"/>
  <text x="545" y="254" text-anchor="middle" fill="white" opacity="0.6" font-family="sans-serif" font-size="10">💻</text>
  <text x="565" y="246" fill="white" opacity="0.8" font-family="sans-serif" font-size="9" font-weight="bold">Alberto Terol</text>
  <text x="565" y="260" fill="white" opacity="0.5" font-family="sans-serif" font-size="8">BA Workflow • Auto Stories</text>
  <!-- Title -->
  <text x="400" y="310" text-anchor="middle" fill="white" font-family="sans-serif" font-size="24" font-weight="bold">Pair Programming Sessions</text>
  <text x="400" y="335" text-anchor="middle" fill="white" opacity="0.7" font-family="sans-serif" font-size="13">Live AI-assisted development collaboration</text>
  <!-- Badge -->
  <rect x="330" y="350" width="140" height="26" rx="13" fill="white" opacity="0.15"/>
  <text x="400" y="368" text-anchor="middle" fill="white" opacity="0.9" font-family="sans-serif" font-size="11" font-weight="bold">🎥 Watch Sessions</text>
</svg>
